<svg xmlns="http://www.w3.org/2000/svg" xmlns:xlink="http://www.w3.org/1999/xlink" width="500" zoomAndPan="magnify" viewBox="0 0 375 374.999991" height="500" preserveAspectRatio="xMidYMid meet" version="1.0"><defs><g/><clipPath id="8d857a97df"><path d="M 83.359375 83.359375 L 291.636719 83.359375 L 291.636719 291.636719 L 83.359375 291.636719 Z M 83.359375 83.359375 " clip-rule="nonzero"/></clipPath><clipPath id="c8396bf92d"><path d="M 187.496094 83.359375 C 129.984375 83.359375 83.359375 129.984375 83.359375 187.496094 C 83.359375 245.011719 129.984375 291.636719 187.496094 291.636719 C 245.011719 291.636719 291.636719 245.011719 291.636719 187.496094 C 291.636719 129.984375 245.011719 83.359375 187.496094 83.359375 Z M 187.496094 83.359375 " clip-rule="nonzero"/></clipPath><clipPath id="826385af81"><path d="M 84.375 84.375 L 290.625 84.375 L 290.625 290.625 L 84.375 290.625 Z M 84.375 84.375 " clip-rule="nonzero"/></clipPath><clipPath id="0cc3e6b53f"><path d="M 187.5 84.375 C 130.546875 84.375 84.375 130.546875 84.375 187.5 C 84.375 244.453125 130.546875 290.625 187.5 290.625 C 244.453125 290.625 290.625 244.453125 290.625 187.5 C 290.625 130.546875 244.453125 84.375 187.5 84.375 Z M 187.5 84.375 " clip-rule="nonzero"/></clipPath></defs><g clip-path="url(#8d857a97df)"><g clip-path="url(#c8396bf92d)"><path stroke-linecap="butt" transform="matrix(0.75, 0, 0, 0.75, 83.358741, 83.358736)" fill="none" stroke-linejoin="miter" d="M 138.849813 0.000851832 C 62.167517 0.000851832 0.000845832 62.167523 0.000845832 138.849819 C 0.000845832 215.537324 62.167517 277.703995 138.849813 277.703995 C 215.537318 277.703995 277.703989 215.537324 277.703989 138.849819 C 277.703989 62.167523 215.537318 0.000851832 138.849813 0.000851832 Z M 138.849813 0.000851832 " stroke="#000000" stroke-width="4" stroke-opacity="1" stroke-miterlimit="4"/></g></g><g clip-path="url(#826385af81)"><g clip-path="url(#0cc3e6b53f)"><path stroke-linecap="butt" transform="matrix(0.75, 0, 0, 0.75, 84.374999, 84.374994)" fill="none" stroke-linejoin="miter" d="M 137.50001 0.0000073875 C 61.562505 0.0000073875 0.0000013875 61.562511 0.0000013875 137.500016 C 0.0000013875 213.437521 61.562505 275.000025 137.50001 275.000025 C 213.437515 275.000025 275.000019 213.437521 275.000019 137.500016 C 275.000019 61.562511 213.437515 0.0000073875 137.50001 0.0000073875 Z M 137.50001 0.0000073875 " stroke="#00fefb" stroke-width="8" stroke-opacity="1" stroke-miterlimit="4"/></g></g><path stroke-linecap="butt" transform="matrix(0.578499, 0, 0, 0.578499, 167.884709, 106.925304)" fill="none" stroke-linejoin="miter" d="M 75.826055 132.678526 C 76.075894 133.117432 76.393256 133.65087 76.77139 134.285595 L 77.716724 136.169512 C 78.594535 137.871114 79.31704 139.289116 79.884241 140.423517 C 81.77491 144.009036 83.381979 147.250183 84.705447 150.146958 C 88.480033 158.769759 90.465236 166.102854 90.654302 172.146243 L 90.654302 172.902511 C 90.654302 188.203425 79.31704 195.84713 56.656021 195.84713 C 53.887542 195.84713 50.957005 195.725587 47.877915 195.468996 L 46.838047 195.374463 C 35.62908 194.496652 26.817212 191.032676 20.39569 184.989288 C 15.925608 180.89734 11.83366 174.381284 8.119845 165.44112 C 6.735606 162.233735 5.479661 158.486159 4.34526 154.205144 L 3.116325 148.539889 L 1.88739 142.685567 L 1.698323 142.023833 L 1.509256 141.267566 L 1.509256 140.700365 C 1.509256 140.328984 1.543018 139.977859 1.60379 139.667249 C 1.921152 138.343781 3.116325 137.553751 5.196061 137.303913 L 5.668728 137.303913 C 7.174511 137.303913 8.27515 137.871114 8.970647 139.005515 C 9.220485 139.44442 9.443314 140.011621 9.632381 140.700365 L 10.010515 141.551166 L 10.294115 142.2129 C 11.171926 144.603246 12.40086 148.00645 13.974167 152.415761 L 15.675769 157.419281 L 17.471905 162.611869 C 21.307262 172.240776 26.49985 179.290271 33.049668 183.760353 C 35.129403 185.083821 37.269911 186.218223 39.47119 187.163557 C 41.989831 188.108892 44.285644 188.581559 46.36538 188.581559 L 46.743513 188.581559 C 55.366315 188.324968 59.681092 184.455849 59.681092 176.967449 L 59.681092 175.643981 C 58.985596 164.691605 50.329032 145.616105 33.711402 118.41748 C 32.387933 116.405267 30.281188 112.623929 27.384413 107.08697 C 24.109504 101.043581 20.834595 94.844888 17.566438 88.484137 C 8.876113 71.238534 3.622754 59.401595 1.792856 52.980073 C 0.597684 48.570762 -0.00327913 44.573348 -0.00327913 40.987829 C -0.00327913 31.858598 3.811821 25.02518 11.428516 20.494327 C 17.593448 16.908808 25.277667 15.112672 34.467669 15.112672 C 37.236149 15.112672 40.132924 15.267977 43.151242 15.58534 C 48.188525 16.15254 52.44253 18.103981 55.899754 21.439661 C 63.138315 28.300089 67.547626 37.868225 69.120932 50.144069 L 69.215466 50.616736 L 69.215466 51.183937 C 69.276237 51.373004 69.309999 51.562071 69.309999 51.751138 C 69.309999 51.940205 69.276237 52.129272 69.215466 52.318339 C 68.837332 53.263673 68.020293 53.73634 66.764348 53.73634 L 66.575281 53.73634 C 65.819014 53.73634 65.218051 53.418978 64.779146 52.791006 C 64.65085 52.601939 64.556317 52.284577 64.495545 51.845671 L 64.306479 51.373004 L 64.211945 50.99487 C 63.833811 49.927993 63.421916 48.570762 62.98301 46.936684 L 61.943142 42.783965 C 60.997808 39.569827 59.93093 36.929643 58.735757 34.849907 C 57.47306 32.709399 55.80522 30.379825 53.732237 27.861184 C 49.451222 23.64094 44.002043 21.311366 37.391454 20.872461 C 36.635186 20.811689 35.885671 20.777927 35.129403 20.777927 C 33.616868 20.777927 32.138095 20.906223 30.686331 21.156061 C 29.936816 21.284356 29.180548 21.405899 28.424281 21.534195 C 28.174442 21.594966 27.917852 21.66249 27.668013 21.723262 L 27.384413 21.817795 L 27.195346 21.817795 C 24.426866 22.76313 22.407902 24.370198 21.151957 26.632249 C 20.584756 27.705879 20.301156 28.806518 20.301156 29.94092 C 20.301156 30.947026 20.584756 31.953132 21.151957 32.959238 L 23.70436 36.835109 L 26.250011 40.704229 C 28.201452 43.722547 29.774759 46.27495 30.969932 48.354686 C 32.482467 51.244709 34.494679 55.154342 37.01332 60.063329 L 40.038391 65.917651 L 43.056709 71.771973 L 55.427086 94.622059 L 67.797464 117.566678 L 71.862402 125.122602 C 73.496481 128.080149 74.819949 130.59879 75.826055 132.678526 Z M 75.826055 132.678526 " stroke="#000000" stroke-width="9.427812" stroke-opacity="1" stroke-miterlimit="4"/><g fill="#ffffff" fill-opacity="1"><g transform="translate(167.884709, 219.732592)"><g><path d="M 43.859375 -36.046875 C 44.003906 -35.796875 44.1875 -35.488281 44.40625 -35.125 L 44.953125 -34.03125 C 45.460938 -33.050781 45.882812 -32.234375 46.21875 -31.578125 C 47.3125 -29.492188 48.238281 -27.617188 49 -25.953125 C 51.1875 -20.960938 52.332031 -16.71875 52.4375 -13.21875 L 52.4375 -12.78125 C 52.4375 -3.9375 45.882812 0.484375 32.78125 0.484375 C 31.175781 0.484375 29.484375 0.410156 27.703125 0.265625 L 27.09375 0.21875 C 20.613281 -0.289062 15.515625 -2.296875 11.796875 -5.796875 C 9.210938 -8.160156 6.847656 -11.925781 4.703125 -17.09375 C 3.898438 -18.957031 3.171875 -21.125 2.515625 -23.59375 L 1.796875 -26.875 L 1.09375 -30.265625 L 0.984375 -30.640625 L 0.875 -31.078125 L 0.875 -31.40625 C 0.875 -31.625 0.890625 -31.828125 0.921875 -32.015625 C 1.109375 -32.773438 1.800781 -33.226562 3 -33.375 L 3.28125 -33.375 C 4.15625 -33.375 4.789062 -33.046875 5.1875 -32.390625 C 5.332031 -32.140625 5.460938 -31.8125 5.578125 -31.40625 L 5.796875 -30.921875 L 5.953125 -30.53125 C 6.460938 -29.144531 7.171875 -27.179688 8.078125 -24.640625 L 9.0625 -21.734375 L 10.109375 -18.734375 C 12.328125 -13.160156 15.332031 -9.082031 19.125 -6.5 C 20.320312 -5.738281 21.554688 -5.082031 22.828125 -4.53125 C 24.285156 -3.988281 25.617188 -3.71875 26.828125 -3.71875 L 27.046875 -3.71875 C 32.035156 -3.863281 34.53125 -6.101562 34.53125 -10.4375 L 34.53125 -11.203125 C 34.125 -17.535156 29.113281 -28.566406 19.5 -44.296875 C 18.738281 -45.460938 17.519531 -47.648438 15.84375 -50.859375 C 13.945312 -54.347656 12.050781 -57.9375 10.15625 -61.625 C 5.132812 -71.601562 2.09375 -78.445312 1.03125 -82.15625 C 0.34375 -84.707031 0 -87.019531 0 -89.09375 C 0 -94.375 2.203125 -98.328125 6.609375 -100.953125 C 10.179688 -103.023438 14.625 -104.0625 19.9375 -104.0625 C 21.539062 -104.0625 23.21875 -103.972656 24.96875 -103.796875 C 27.875 -103.460938 30.332031 -102.332031 32.34375 -100.40625 C 36.53125 -96.4375 39.078125 -90.898438 39.984375 -83.796875 L 40.046875 -83.53125 L 40.046875 -83.203125 C 40.078125 -83.085938 40.09375 -82.976562 40.09375 -82.875 C 40.09375 -82.757812 40.078125 -82.648438 40.046875 -82.546875 C 39.828125 -81.992188 39.351562 -81.71875 38.625 -81.71875 L 38.515625 -81.71875 C 38.078125 -81.71875 37.726562 -81.898438 37.46875 -82.265625 C 37.394531 -82.378906 37.34375 -82.5625 37.3125 -82.8125 L 37.203125 -83.09375 L 37.140625 -83.3125 C 36.921875 -83.925781 36.6875 -84.707031 36.4375 -85.65625 L 35.828125 -88.0625 C 35.285156 -89.914062 34.671875 -91.441406 33.984375 -92.640625 C 33.253906 -93.878906 32.285156 -95.226562 31.078125 -96.6875 C 28.609375 -99.125 25.457031 -100.472656 21.625 -100.734375 C 21.195312 -100.765625 20.765625 -100.78125 20.328125 -100.78125 C 19.453125 -100.78125 18.59375 -100.707031 17.75 -100.5625 C 17.3125 -100.488281 16.875 -100.414062 16.4375 -100.34375 C 16.289062 -100.3125 16.144531 -100.273438 16 -100.234375 L 15.84375 -100.1875 L 15.734375 -100.1875 C 14.128906 -99.632812 12.960938 -98.707031 12.234375 -97.40625 C 11.910156 -96.78125 11.75 -96.140625 11.75 -95.484375 C 11.75 -94.898438 11.910156 -94.316406 12.234375 -93.734375 L 13.71875 -91.5 L 15.1875 -89.265625 C 16.3125 -87.515625 17.222656 -86.035156 17.921875 -84.828125 C 18.796875 -83.160156 19.957031 -80.90625 21.40625 -78.0625 L 24.90625 -71.28125 L 32.0625 -58.0625 L 39.21875 -44.796875 L 41.578125 -40.421875 C 42.515625 -38.710938 43.273438 -37.253906 43.859375 -36.046875 Z M 43.859375 -36.046875 "/></g></g></g><path stroke-linecap="butt" transform="matrix(0.551422, 0.042461, -0.042461, 0.551422, 154.235253, 115.737093)" fill="none" stroke-linejoin="miter" d="M 60.707397 161.906741 C 60.954944 161.717664 61.139104 161.441377 61.259334 161.070837 L 61.542034 160.142322 L 63.859903 151.881047 L 65.993584 143.527695 L 67.391782 137.214485 L 68.69084 130.809733 L 72.030857 114.939505 C 73.393874 108.997369 74.724441 103.737792 76.022018 99.153732 C 77.44741 94.205631 79.298405 86.964976 81.58963 77.437724 L 83.821242 67.596284 L 85.953722 57.755394 L 87.161882 52.746097 L 88.37005 47.828891 C 89.420681 44.177676 90.59648 40.956028 91.890949 38.171531 L 92.732021 35.570711 L 93.566043 32.878341 C 94.242468 30.715236 95.392501 30.470833 97.001515 32.139175 C 97.743723 32.946266 98.017899 33.838984 97.832171 34.830872 L 97.182939 38.359086 L 95.603656 49.588338 L 94.216147 60.916166 C 93.908671 63.638829 93.258867 66.791638 92.267278 70.381635 C 91.213929 73.905548 90.22352 78.706811 89.294965 84.771339 L 87.622962 94.888465 C 87.001928 98.782874 86.387892 102.124196 85.76677 104.913515 L 84.284131 112.06205 L 82.985139 119.295619 C 82.670005 121.090874 82.150142 123.355267 81.403338 126.076341 L 79.551757 132.757408 C 78.185978 138.019697 76.732439 143.246239 75.184641 148.44462 L 72.866164 155.870035 L 70.448553 163.296001 L 68.313643 169.793451 L 66.277865 176.290351 L 64.793381 180.655034 L 63.117116 184.82905 C 62.377281 186.628672 61.166652 187.834075 59.499857 188.451215 C 58.75394 188.69992 58.107179 189.224347 57.553073 190.032082 C 56.500655 191.636171 54.947634 192.442902 52.90755 192.444147 C 51.05381 192.381455 49.533237 192.505627 48.359916 192.815578 L 47.899476 192.999797 L 47.43198 193.000375 C 43.474191 192.384221 40.469803 191.637981 38.426942 190.775197 C 36.94586 190.216269 35.863429 189.038675 35.179647 187.242416 C 34.316536 185.141187 33.694515 183.411011 33.320084 182.044304 C 32.702357 179.817921 31.654456 176.880847 30.168796 173.226583 L 28.962133 169.791689 L 27.756021 166.455928 C 26.454542 162.801649 24.904879 158.132223 23.113532 152.440066 L 18.654676 138.325056 C 17.852753 135.914506 17.017195 132.883158 16.148002 129.231011 L 14.108817 120.044296 L 13.831357 118.740962 C 12.840343 115.898683 11.881228 112.274712 10.955097 107.883135 L 9.931371 102.408143 L 8.722922 96.926124 L 7.422324 90.707385 L 6.220859 84.488096 C 5.228043 79.41451 4.301933 75.299205 3.435487 72.142724 C 2.877374 70.230528 2.410237 67.935878 2.042747 65.279356 L 1.116961 58.408368 L 0.647012 54.789234 C 0.219923 52.002706 1.389881 50.269139 4.178014 49.586904 L 6.033886 49.21731 L 7.981857 48.9398 L 9.469388 48.846508 L 10.857778 48.661675 C 14.755852 47.674369 18.626475 48.906455 22.463688 52.37256 L 23.300163 53.299903 C 24.037505 54.227796 24.937873 54.788937 25.99314 54.969785 C 28.714199 55.532407 30.783674 57.292804 32.209692 60.264518 L 33.138888 62.303986 C 36.172028 70.415326 38.209961 77.469867 39.266772 83.466523 L 39.267343 83.841929 C 39.8184 85.570485 40.377642 88.04931 40.936942 91.264862 L 41.584038 94.976615 L 42.422908 98.786943 C 43.22327 102.005185 44.150941 105.312798 45.206463 108.716826 L 48.174163 118.186241 L 50.865598 127.747768 L 51.333746 129.135595 L 51.795394 130.531006 L 56.253122 144.079386 C 57.301603 147.483956 58.109578 151.077061 58.662422 154.852743 L 59.315989 158.188547 L 60.239329 161.531914 L 60.430568 161.715539 Z M 60.707397 161.906741 " stroke="#000000" stroke-width="9.267424" stroke-opacity="1" stroke-miterlimit="4"/><g fill="#00ffc2" fill-opacity="1"><g transform="translate(146.040285, 222.161566)"><g><path d="M 34.8125 -14.578125 C 34.945312 -14.671875 35.0625 -14.8125 35.15625 -15 L 35.328125 -15.515625 L 36.96875 -19.96875 L 38.484375 -24.484375 L 39.53125 -27.90625 L 40.515625 -31.359375 L 43.03125 -39.984375 C 44.03125 -43.210938 44.988281 -46.054688 45.90625 -48.515625 C 46.90625 -51.191406 48.234375 -55.109375 49.890625 -60.265625 L 51.546875 -65.59375 L 53.140625 -70.921875 L 54.015625 -73.640625 L 54.90625 -76.3125 C 55.632812 -78.28125 56.414062 -80 57.25 -81.46875 L 57.8125 -82.875 L 58.390625 -84.328125 C 58.859375 -85.492188 59.5 -85.578125 60.3125 -84.578125 C 60.695312 -84.097656 60.816406 -83.59375 60.671875 -83.0625 L 60.15625 -81.15625 L 58.8125 -75.015625 L 57.5625 -68.828125 C 57.28125 -67.347656 56.785156 -65.632812 56.078125 -63.6875 C 55.347656 -61.800781 54.601562 -59.203125 53.84375 -55.890625 L 52.5 -50.390625 C 51.988281 -48.253906 51.5 -46.4375 51.03125 -44.9375 L 49.90625 -41.0625 L 48.875 -37.125 C 48.632812 -36.15625 48.253906 -34.929688 47.734375 -33.453125 L 46.4375 -29.84375 C 45.457031 -27 44.425781 -24.175781 43.34375 -21.375 L 41.75 -17.375 L 40.125 -13.390625 L 38.65625 -9.890625 L 37.25 -6.390625 L 36.25 -4.0625 L 35.140625 -1.828125 C 34.671875 -0.859375 33.957031 -0.242188 33 0.015625 C 32.582031 0.117188 32.203125 0.378906 31.859375 0.796875 C 31.210938 1.640625 30.328125 2.019531 29.203125 1.9375 C 28.179688 1.820312 27.34375 1.820312 26.6875 1.9375 L 26.40625 2.03125 L 26.15625 2.015625 C 24.007812 1.503906 22.382812 0.960938 21.28125 0.390625 C 20.476562 0.0234375 19.929688 -0.660156 19.640625 -1.671875 C 19.242188 -2.867188 18.984375 -3.851562 18.859375 -4.625 C 18.609375 -5.882812 18.148438 -7.550781 17.484375 -9.625 L 16.953125 -11.5625 L 16.421875 -13.46875 C 15.859375 -15.539062 15.207031 -18.179688 14.46875 -21.390625 L 12.609375 -29.34375 C 12.265625 -30.71875 11.929688 -32.425781 11.609375 -34.46875 L 10.875 -39.640625 L 10.796875 -40.359375 C 10.359375 -41.972656 9.976562 -44.007812 9.65625 -46.46875 L 9.328125 -49.546875 L 8.890625 -52.609375 L 8.4375 -56.09375 L 8.03125 -59.578125 C 7.71875 -62.410156 7.382812 -64.71875 7.03125 -66.5 C 6.800781 -67.582031 6.640625 -68.863281 6.546875 -70.34375 L 6.328125 -74.171875 L 6.234375 -76.1875 C 6.109375 -77.738281 6.832031 -78.644531 8.40625 -78.90625 L 9.4375 -79.03125 L 10.515625 -79.09375 L 11.34375 -79.09375 L 12.109375 -79.140625 C 14.296875 -79.523438 16.378906 -78.675781 18.359375 -76.59375 L 18.796875 -76.046875 C 19.148438 -75.515625 19.613281 -75.171875 20.1875 -75.015625 C 21.675781 -74.585938 22.75 -73.519531 23.40625 -71.8125 L 23.828125 -70.65625 C 25.148438 -66.070312 25.976562 -62.097656 26.3125 -58.734375 L 26.296875 -58.53125 C 26.523438 -57.550781 26.722656 -56.160156 26.890625 -54.359375 L 27.09375 -52.296875 L 27.40625 -50.15625 C 27.695312 -48.34375 28.0625 -46.472656 28.5 -44.546875 L 29.734375 -39.203125 L 30.828125 -33.828125 L 31.03125 -33.046875 L 31.21875 -32.234375 L 33.09375 -24.59375 C 33.53125 -22.664062 33.828125 -20.648438 33.984375 -18.546875 L 34.203125 -16.671875 L 34.5625 -14.796875 L 34.65625 -14.6875 Z M 34.8125 -14.578125 "/></g></g></g></svg>